<svg fill="#ffae00" xmlns="http://www.w3.org/2000/svg" viewBox="0 0 1920 1080" style="enable-background:new 0 0 1920 1080" xml:space="preserve"><path d="M71.75 734.87c26.69 4.45 52.18 6.88 77.25 6.88 12.54 69.97 60.67 131.85 147.63 131.85 116.08 0 174.73-107.99 174.73-228.11 0-5.26-.4-10.52-.4-15.77l-1.21-27.91c36.4-44.49 56.62-93.43 56.62-137.11 0-21.84-10.11-43.28-36-43.28-36 0-61.48 40.04-61.48 152.89 0 12.94.4 27.1 1.21 42.47-14.16 12.94-30.33 25.08-47.73 36C377.92 595.75 346.78 546 279.64 546c-88.17 0-133.88 78.87-133.88 159.36v5.26c-21.44-.81-43.68-3.24-65.93-7.68l-8.08 31.93zm245.51 69.97c38.42-21.44 62.29-74.42 65.12-127 17.8-11.32 33.97-23.86 48.94-36.81 0 5.26.4 10.52.4 15.37 0 114.06-47.32 196.16-126.6 196.16-70.38 0-109.2-52.18-120.53-111.63 63.9-4.45 120.93-21.84 169.47-47.32-7.68 31.95-26.69 61.48-57.03 79.27l20.23 31.96zm40.85-138.73C307.96 692.4 247.69 708.98 181.36 711c0-2.83-.4-5.66-.4-8.09 0-70.38 34.78-139.13 98.69-139.13 51.77 0 78.47 45.3 78.47 94.64-.01 2.84-.01 5.26-.01 7.69zm147.62-201.82c0 38.02-13.75 75.63-37.61 109.61-1.62-26.69-2.43-49.34-2.43-67.95 0-40.45 5.26-61.88 25.48-61.88 9.71-.01 14.56 9.3 14.56 20.22zM630.71 683.1c-7.28 19.01-16.99 29.12-27.5 33.97 5.26-17.8 10.11-38.42 10.11-58.24 0-36.4-14.16-67.54-41.25-67.54-28.72 0-45.7 27.1-50.15 58.24l-14.56-3.64c-8.09 23.86-12.54 49.34-12.54 71.99 0 36.81 12.13 65.93 40.04 65.93 25.89 0 46.51-17.39 60.26-46.92 19.41-6.88 37.61-23.86 46.92-48.13 0-2.43-8.9-5.66-11.33-5.66zm-67.54-65.52c.81 0 2.02-.4 2.83-.4 11.32 0 15.77 13.75 15.77 31.95 0 21.44-6.07 49.75-14.96 71.18-18.2-5.26-24.67-26.29-24.67-48.13 0-25.89 9.3-52.18 21.03-54.6zm-19.82 135.08c-1.21.4-2.02.4-3.24.4-10.11 0-16.58-16.58-16.58-40.45 0-5.26.4-11.32 1.21-17.39 5.66 19.41 16.58 35.59 33.57 42.06-4.85 8.1-9.7 13.77-14.96 15.38z"/><path d="m645.68 779.76 16.18-83.72C675.2 639.01 693 620 703.11 620c4.45 0 6.47 3.64 6.47 8.09 0 29.12-26.29 74.02-26.29 117.7 0 24.67 13.35 36 27.5 36 33.17 0 51.37-46.92 69.16-93.03 0-2.43-8.9-5.66-11.32-5.66-17.8 46.51-31.14 69.16-41.66 69.16-3.64 0-8.09-2.02-8.09-13.75 0-33.17 26.29-81.3 26.29-118.91 0-19.41-9.3-28.72-23.46-28.72-16.99 0-33.17 12.13-46.11 31.55l4.45-27.1h-34.78c-4.85 30.74-11.73 71.59-19.82 117.29-11.32 30.33-14.96 67.14-14.96 67.14h35.19z"/><path d="M904.13 683.1c-10.52 27.5-26.29 50.15-43.28 69.57 11.73-64.31 25.08-139.54 29.93-157.33h-33.17l-3.64 17.39c-2.83-14.16-9.71-21.44-22.25-21.44-38.42 0-69.57 84.13-69.57 141.16 0 29.53 8.09 51.37 27.91 51.37 16.58 0 29.93-12.13 40.04-30.33-2.43 12.54-4.04 25.48-6.47 37.61-29.93 28.72-55.82 51.77-55.82 79.68 0 21.44 12.94 31.95 31.14 31.95 25.89 0 41.25-29.93 48.13-70.78l8.9-52.18c21.84-22.65 44.09-51.37 59.46-91v-.4c.01-2.44-7.67-5.27-11.31-5.27zm-70.38-62.69c8.9 0 12.54 10.52 12.54 25.48 0 37.61-23.05 103.54-41.66 103.54-6.07 0-8.49-8.49-8.49-21.03 0-36.81 20.62-107.99 37.61-107.99zm-43.28 249.95c0-19.41 11.73-35.19 28.72-52.98l-8.09 43.28c-2.43 12.54-5.66 20.63-12.54 20.63-4.04-.01-8.09-3.24-8.09-10.93zm233.78-217.19c-5.26 1.21-10.92 2.02-16.99 2.02-45.7 0-70.38-38.83-70.38-83.32 0-61.07 45.7-133.07 143.99-133.07 55.41 0 109.61 31.55 109.61 94.64 0 32.76-14.56 65.52-45.7 80.89-10.52-2.02-22.25-3.24-34.78-3.64 8.09-60.67 17.39-95.86 27.5-124.57l-37.61-9.3c-10.92 32.36-19.82 83.32-30.33 158.95-13.75 98.28-30.33 167.45-59.05 195.76-11.73-6.07-25.89-9.71-39.64-9.71-5.66 0-10.92.4-15.77 1.62l-6.88 52.18c20.63 0 42.06-5.26 62.29-18.61 18.61 7.68 46.92 16.58 94.24 16.58 93.43 0 143.18-68.35 143.18-135.49 0-47.32-24.67-93.83-76.04-115.27 37.61-19.82 55.41-56.62 55.41-93.43 0-74.02-67.95-110.82-143.99-110.82-122.96 0-179.58 85.34-179.58 160.57 0 59.46 35.59 112.84 101.92 112.84 8.9 0 17.39-1.21 25.08-4.04l-6.48-34.78zm80.49 200.21c-32.76 0-55.41-5.66-74.02-12.54 33.57-33.17 62.29-95.05 76.04-202.23 14.96-.4 28.72-2.43 40.85-6.07 41.25 17.8 61.07 60.67 61.07 103.54 0 58.24-35.99 117.3-103.94 117.3zm180.39-258.05c-6.88 29.12-24.67 93.43-24.67 138.33 0 27.91 7.28 48.13 29.12 48.13 33.17 0 47.32-46.92 65.12-93.03v-.4c0-2.43-9.3-5.26-11.32-5.26-17.8 46.51-31.14 69.16-41.66 69.16-3.64 0-8.09-2.02-8.09-13.75 0-33.17 11.73-80.08 25.89-143.18h-34.39zm23.86-23.46c17.8 0 28.31-16.99 28.31-31.55 0-11.32-5.66-21.03-19.01-21.03-17.8 0-28.31 17.39-28.31 31.95 0 10.92 6.07 20.63 19.01 20.63z"/><path d="M1393.12 742.55c0-14.16 18.61-47.73 18.61-73.61 0-23.05-17.39-39.23-30.74-52.98 6.47-21.03 9.71-40.45 11.32-67.14l-30.33-8.9c-6.47 21.03-9.3 37.21-9.3 50.15 0 14.16 3.24 25.08 7.28 33.97-4.04 19.41-9.3 39.64-16.58 59.05v.4c0 3.24 11.32 5.26 11.32 5.26l16.18-42.87c4.45 8.49 8.09 17.8 8.09 29.93 0 20.63-18.61 49.34-18.61 75.63 0 18.2 7.28 30.33 26.29 30.33 33.17 0 47.32-46.92 65.12-93.03v-.4c0-2.43-9.3-5.26-11.32-5.26-17.8 46.51-31.95 67.95-40.85 67.95-4.06.02-6.48-2.41-6.48-8.48z"/><path d="M1529.82 618.38c-2.83-18.2-11.32-27.1-26.29-27.1-38.42 0-69.16 84.13-69.16 141.16 0 29.12 8.09 51.37 27.91 51.37 23.05 0 37.21-21.44 46.51-46.11v4.45c0 27.91 7.28 39.64 20.22 39.64 18.61 0 41.66-28.31 66.33-93.03 0-2.43-8.9-5.66-11.32-5.66-12.94 33.57-25.08 56.62-34.38 56.62-2.83 0-4.04-3.24-4.04-11.73 0-13.35 3.24-38.83 10.92-82.11 17.39-67.14 31.95-150.05 33.57-184.43h-31.95l-28.32 156.93zm-24.26 2.03c8.9 0 12.54 10.52 12.54 25.48 0 37.61-23.05 103.54-41.66 103.54-5.66 0-8.09-8.49-8.09-21.03 0-36.4 19.82-107.99 37.21-107.99zm202.68-410.28c-3.79-6.16-11.69-8.04-18.17-9.35.11-38.39-54.25-35.3-77.64-22.04-31.9 18.08-37.92 53.09-36.69 87.45 1.4 38.91 8.58 69.74 32.89 100.87 24.04 30.77 61.33 47.31 99.61 54.1 18.34 3.26 35 4.52 48.63 19.51 11.51 12.65 19.58 29.2 27.6 43.84 6.89 12.58 11.53 30.07 19.82 41.59 11.06 15.38 24.56 4.65 36.64-5.86 13.94-12.12 8.02-10.33-4.34-21.45-7.8-7.03-13.98-17.17-19.51-25.68-11.87-18.29-22.17-37.7-34.07-56.16 10.42 1.63 18.95 7.33 29.09 9.54-22.05-22.14-37.88-45.34-52.92-73.67-14.68-27.66-25.22-54.84-47.65-77.74-14.86-15.17-32.87-27.78-30.68-50.52 9.75-2.28 20.03-9.79 30.06-9.51-1.09-1.46-1.67-3.48-2.67-4.92"/><path d="M1642.76 392.31c-6.88 2.68-20.95 14.4-30.32 13.56-9.13-.83-14.59-16.3-25.38-6.37 20.96-6.31 16.01 21.52 30.29 28.63-3.35-12.12-5.34-13.76 6.36-20.27 7.27-4.05 16.18-8.29 24.02-11.35m47.93 19.85c-4.75 5.65-11.48 22.68-20.11 26.43-8.41 3.65-20.62-7.3-25.32 6.58 15.37-15.58 24.36 11.21 40.31 10.62-8.75-9.04-11.29-9.52-4.14-20.84 4.44-7.04 10.22-15.04 15.65-21.47"/><path d="M1745.95 540.35c-14.3-8.69-13.47-36.42-29.56-47.93-14.29-10.23-31.4-12.59-45.84-23.16-11.98-8.77-19.76-20.31-32.62-27.52-13.91-7.79-25.63-14.03-38.7-22.92-16.45-11.19-31.65-9.22-47.9-2.04-24.09 10.65-41.94 10.04-66.3 0-17.71-7.3-30.59-8.67-48.92-1.56-8.3 3.22-14.89 8.19-23.44 10.19-3.72.87-8.16 2.96-12.23 1.82-7.56-2.13-3.47-3.49-8.15-7.14-3.08-2.4-1.85-4.56-7.14-7.13-3.13-1.52-7.91.13-11.21-1.02-6.99-2.44-9.14-5.11-14.59-11.03 5.83 2.02 10.83 7.17 17.65 8.99 3.44.92 9.17-1.63 12.28-.05 3.12 1.59 3.35 6.82 5.25 7.98 12 7.33 25.58-.12 38.76-7.63 17.09-9.74 28.61-17.79 48.44-10.24 18.59 7.07 24.69 11.59 45.09 4.57 16.72-5.76 29.84-14.21 47.91-12.18 17.83 2.01 29.32 13.08 44.84 21.88 14.07 7.99 27.03 18.53 41.79 24.95 16.62 7.24 31.65 11.21 45.86 22.95 14.8 12.24 32.54 22.49 44.62 37.69 4.89 6.15 13.22 18.17 12.45 26.27-1.2 12.67-10.41 10.71-21.4 12.23"/><path d="M1400.45 420.09c-2.72-14.53 14.39-9.81 15.34-20.38.84-9.39-13.64-14.95-13.08-27.52 1-22.26 34.29-18.44 32.19-39.44-4.09 14.92-23.18 14.97-31.42 27.24-9.52 14.18-3.22 28.63 8.33 37.71-8.19 6.06-22.02 13.71-14.42 25.45m113.13-5.1c-23.79 4.37-18.57 27.49-32.87 39.49-14.42 12.11-33.29 6.27-48.67 2.24-39.44-10.33-42.55 23.21-73.02 32.71 9.74-2.56 16.62-15.56 23.88-22.75 10.26-10.16 16.94-14 31.82-13.99 6.09.01 36.33 6.39 38.78.05 2.16-5.6-9.26-8.02-11.51-12.01-2.87-5.1-1.79-14.74-1.79-18.76-1.22 13.74 17.35 34.56 30.37 29.45 16.39-6.44 10.1-30.8 25.68-38.48"/><path d="M1820.43 165.48c-7.96-7.14-23.34-15.92-25.42-28.36l-5.22-1.31-.15 7.56-.12 67.66c-5.29-3.25-14.97-2.26-23.82 3.04-11.23 6.63-17.1 17.74-13.28 24.72 3.95 6.75 16.2 6.95 27.41.26 8.55-5.17 14.12-12.88 14.28-19.41.1-1.08.03-2.12.02-3.14l.13-52.33-.08-3.85c.03-.89 38.28 15.92 36.38 36.31-1.11 10.74-6.78 18.83-6.78 18.83l2.3-.1s.77-.69 1.37-1.37c.45-.84 4.43-7.64 6.24-17.45 2.39-12.47-4.99-23.16-13.26-31.06z" style="fill-rule:evenodd;clip-rule:evenodd"/></svg>