<?xml version="1.0" encoding="utf-8"?>
<!-- Generator: Adobe Illustrator 23.0.3, SVG Export Plug-In . SVG Version: 6.00 Build 0)  -->
<svg version="1.1" fill = "#ffae00" id="Слой_1" xmlns="http://www.w3.org/2000/svg" xmlns:xlink="http://www.w3.org/1999/xlink" x="0px" y="0px"
	 viewBox="0 0 1920 1080" style="enable-background:new 0 0 1920 1080;" xml:space="preserve">
<style type="text/css">
	.st0{fill-rule:evenodd;clip-rule:evenodd;}
</style>
<path d="M71.75,734.87c26.69,4.45,52.18,6.88,77.25,6.88c12.54,69.97,60.67,131.85,147.63,131.85
	c116.08,0,174.73-107.99,174.73-228.11c0-5.26-0.4-10.52-0.4-15.77l-1.21-27.91c36.4-44.49,56.62-93.43,56.62-137.11
	c0-21.84-10.11-43.28-36-43.28c-36,0-61.48,40.04-61.48,152.89c0,12.94,0.4,27.1,1.21,42.47c-14.16,12.94-30.33,25.08-47.73,36
	c-4.45-57.03-35.59-106.78-102.73-106.78c-88.17,0-133.88,78.87-133.88,159.36c0,1.62,0,3.64,0,5.26
	c-21.44-0.81-43.68-3.24-65.93-7.68C71.75,734.87,71.75,734.87,71.75,734.87z M317.26,804.84c38.42-21.44,62.29-74.42,65.12-127
	c17.8-11.32,33.97-23.86,48.94-36.81c0,5.26,0.4,10.52,0.4,15.37c0,114.06-47.32,196.16-126.6,196.16
	c-70.38,0-109.2-52.18-120.53-111.63c63.9-4.45,120.93-21.84,169.47-47.32c-7.68,31.95-26.69,61.48-57.03,79.27
	C317.26,804.84,317.26,804.84,317.26,804.84z M358.11,666.11c-50.15,26.29-110.42,42.87-176.75,44.89c0-2.83-0.4-5.66-0.4-8.09
	c0-70.38,34.78-139.13,98.69-139.13c51.77,0,78.47,45.3,78.47,94.64C358.11,661.26,358.11,663.68,358.11,666.11z M505.73,464.29
	c0,38.02-13.75,75.63-37.61,109.61c-1.62-26.69-2.43-49.34-2.43-67.95c0-40.45,5.26-61.88,25.48-61.88
	C500.88,444.06,505.73,453.37,505.73,464.29z"/>
<path d="M630.71,683.1c-7.28,19.01-16.99,29.12-27.5,33.97c5.26-17.8,10.11-38.42,10.11-58.24c0-36.4-14.16-67.54-41.25-67.54
	c-28.72,0-45.7,27.1-50.15,58.24l-14.56-3.64c-8.09,23.86-12.54,49.34-12.54,71.99c0,36.81,12.13,65.93,40.04,65.93
	c25.89,0,46.51-17.39,60.26-46.92c19.41-6.88,37.61-23.86,46.92-48.13C642.04,686.33,633.14,683.1,630.71,683.1z M563.17,617.58
	c0.81,0,2.02-0.4,2.83-0.4c11.32,0,15.77,13.75,15.77,31.95c0,21.44-6.07,49.75-14.96,71.18c-18.2-5.26-24.67-26.29-24.67-48.13
	C542.14,646.29,551.44,620,563.17,617.58z M543.35,752.66c-1.21,0.4-2.02,0.4-3.24,0.4c-10.11,0-16.58-16.58-16.58-40.45
	c0-5.26,0.4-11.32,1.21-17.39c5.66,19.41,16.58,35.59,33.57,42.06C553.46,745.38,548.61,751.05,543.35,752.66z"/>
<path d="M645.68,779.76l16.18-83.72C675.2,639.01,693,620,703.11,620c4.45,0,6.47,3.64,6.47,8.09c0,29.12-26.29,74.02-26.29,117.7
	c0,24.67,13.35,36,27.5,36c33.17,0,51.37-46.92,69.16-93.03c0-2.43-8.9-5.66-11.32-5.66c-17.8,46.51-31.14,69.16-41.66,69.16
	c-3.64,0-8.09-2.02-8.09-13.75c0-33.17,26.29-81.3,26.29-118.91c0-19.41-9.3-28.72-23.46-28.72c-16.99,0-33.17,12.13-46.11,31.55
	l4.45-27.1h-34.78c-4.85,30.74-11.73,71.59-19.82,117.29c-11.32,30.33-14.96,67.14-14.96,67.14
	C645.68,779.76,645.68,779.76,645.68,779.76z"/>
<path d="M904.13,683.1c-10.52,27.5-26.29,50.15-43.28,69.57c11.73-64.31,25.08-139.54,29.93-157.33h-33.17l-3.64,17.39
	c-2.83-14.16-9.71-21.44-22.25-21.44c-38.42,0-69.57,84.13-69.57,141.16c0,29.53,8.09,51.37,27.91,51.37
	c16.58,0,29.93-12.13,40.04-30.33c-2.43,12.54-4.04,25.48-6.47,37.61c-29.93,28.72-55.82,51.77-55.82,79.68
	c0,21.44,12.94,31.95,31.14,31.95c25.89,0,41.25-29.93,48.13-70.78l8.9-52.18c21.84-22.65,44.09-51.37,59.46-91c0,0,0,0,0-0.4
	C915.45,685.93,907.77,683.1,904.13,683.1z M833.75,620.41c8.9,0,12.54,10.52,12.54,25.48c0,37.61-23.05,103.54-41.66,103.54
	c-6.07,0-8.49-8.49-8.49-21.03C796.14,691.59,816.76,620.41,833.75,620.41z M790.47,870.36c0-19.41,11.73-35.19,28.72-52.98
	l-8.09,43.28c-2.43,12.54-5.66,20.63-12.54,20.63C794.52,881.28,790.47,878.05,790.47,870.36z"/>
<path d="M1024.25,653.17c-5.26,1.21-10.92,2.02-16.99,2.02c-45.7,0-70.38-38.83-70.38-83.32c0-61.07,45.7-133.07,143.99-133.07
	c55.41,0,109.61,31.55,109.61,94.64c0,32.76-14.56,65.52-45.7,80.89c-10.52-2.02-22.25-3.24-34.78-3.64
	c8.09-60.67,17.39-95.86,27.5-124.57l-37.61-9.3c-10.92,32.36-19.82,83.32-30.33,158.95c-13.75,98.28-30.33,167.45-59.05,195.76
	c-11.73-6.07-25.89-9.71-39.64-9.71c-5.66,0-10.92,0.4-15.77,1.62l-6.88,52.18c20.63,0,42.06-5.26,62.29-18.61
	c18.61,7.68,46.92,16.58,94.24,16.58c93.43,0,143.18-68.35,143.18-135.49c0-47.32-24.67-93.83-76.04-115.27
	c37.61-19.82,55.41-56.62,55.41-93.43c0-74.02-67.95-110.82-143.99-110.82c-122.96,0-179.58,85.34-179.58,160.57
	c0,59.46,35.59,112.84,101.92,112.84c8.9,0,17.39-1.21,25.08-4.04C1024.25,653.17,1024.25,653.17,1024.25,653.17z M1104.74,853.38
	c-32.76,0-55.41-5.66-74.02-12.54c33.57-33.17,62.29-95.05,76.04-202.23c14.96-0.4,28.72-2.43,40.85-6.07
	c41.25,17.8,61.07,60.67,61.07,103.54C1208.68,794.32,1172.69,853.38,1104.74,853.38z"/>
<path d="M1285.13,595.33c-6.88,29.12-24.67,93.43-24.67,138.33c0,27.91,7.28,48.13,29.12,48.13c33.17,0,47.32-46.92,65.12-93.03
	v-0.4c0-2.43-9.3-5.26-11.32-5.26c-17.8,46.51-31.14,69.16-41.66,69.16c-3.64,0-8.09-2.02-8.09-13.75
	c0-33.17,11.73-80.08,25.89-143.18C1285.13,595.33,1285.13,595.33,1285.13,595.33z M1308.99,571.87c17.8,0,28.31-16.99,28.31-31.55
	c0-11.32-5.66-21.03-19.01-21.03c-17.8,0-28.31,17.39-28.31,31.95C1289.98,562.16,1296.05,571.87,1308.99,571.87z"/>
<path d="M1393.12,742.55c0-14.16,18.61-47.73,18.61-73.61c0-23.05-17.39-39.23-30.74-52.98c6.47-21.03,9.71-40.45,11.32-67.14
	l-30.33-8.9c-6.47,21.03-9.3,37.21-9.3,50.15c0,14.16,3.24,25.08,7.28,33.97c-4.04,19.41-9.3,39.64-16.58,59.05v0.4
	c0,3.24,11.32,5.26,11.32,5.26l16.18-42.87c4.45,8.49,8.09,17.8,8.09,29.93c0,20.63-18.61,49.34-18.61,75.63
	c0,18.2,7.28,30.33,26.29,30.33c33.17,0,47.32-46.92,65.12-93.03v-0.4c0-2.43-9.3-5.26-11.32-5.26
	c-17.8,46.51-31.95,67.95-40.85,67.95C1395.54,751.05,1393.12,748.62,1393.12,742.55z"/>
<path d="M1529.82,618.38c-2.83-18.2-11.32-27.1-26.29-27.1c-38.42,0-69.16,84.13-69.16,141.16c0,29.12,8.09,51.37,27.91,51.37
	c23.05,0,37.21-21.44,46.51-46.11c0,1.62,0,3.24,0,4.45c0,27.91,7.28,39.64,20.22,39.64c18.61,0,41.66-28.31,66.33-93.03
	c0-2.43-8.9-5.66-11.32-5.66c-12.94,33.57-25.08,56.62-34.38,56.62c-2.83,0-4.04-3.24-4.04-11.73c0-13.35,3.24-38.83,10.92-82.11
	c17.39-67.14,31.95-150.05,33.57-184.43h-31.95C1529.82,618.38,1529.82,618.38,1529.82,618.38z M1505.56,620.41
	c8.9,0,12.54,10.52,12.54,25.48c0,37.61-23.05,103.54-41.66,103.54c-5.66,0-8.09-8.49-8.09-21.03
	C1468.35,692,1488.17,620.41,1505.56,620.41z"/>
<path d="M1708.24,210.13c-3.79-6.16-11.69-8.04-18.17-9.35c0.11-38.39-54.25-35.3-77.64-22.04c-31.9,18.08-37.92,53.09-36.69,87.45
	c1.4,38.91,8.58,69.74,32.89,100.87c24.04,30.77,61.33,47.31,99.61,54.1c18.34,3.26,35,4.52,48.63,19.51
	c11.51,12.65,19.58,29.2,27.6,43.84c6.89,12.58,11.53,30.07,19.82,41.59c11.06,15.38,24.56,4.65,36.64-5.86
	c13.94-12.12,8.02-10.33-4.34-21.45c-7.8-7.03-13.98-17.17-19.51-25.68c-11.87-18.29-22.17-37.7-34.07-56.16
	c10.42,1.63,18.95,7.33,29.09,9.54c-22.05-22.14-37.88-45.34-52.92-73.67c-14.68-27.66-25.22-54.84-47.65-77.74
	c-14.86-15.17-32.87-27.78-30.68-50.52c9.75-2.28,20.03-9.79,30.06-9.51C1709.82,213.59,1709.24,211.57,1708.24,210.13"/>
<path d="M1642.76,392.31c-6.88,2.68-20.95,14.4-30.32,13.56c-9.13-0.83-14.59-16.3-25.38-6.37c20.96-6.31,16.01,21.52,30.29,28.63
	c-3.35-12.12-5.34-13.76,6.36-20.27c7.27-4.05,16.18-8.29,24.02-11.35"/>
<path d="M1695.66,416.36c-4.75,5.65-11.48,22.68-20.11,26.43c-8.41,3.65-20.62-7.3-25.32,6.58c15.37-15.58,24.36,11.21,40.31,10.62
	c-8.75-9.04-11.29-9.52-4.14-20.84c4.44-7.04,10.22-15.04,15.65-21.47"/>
<path d="M1745.95,540.35c-14.3-8.69-13.47-36.42-29.56-47.93c-14.29-10.23-31.4-12.59-45.84-23.16
	c-11.98-8.77-19.76-20.31-32.62-27.52c-13.91-7.79-25.63-14.03-38.7-22.92c-16.45-11.19-31.65-9.22-47.9-2.04
	c-24.09,10.65-41.94,10.04-66.3,0c-17.71-7.3-30.59-8.67-48.92-1.56c-8.3,3.22-14.89,8.19-23.44,10.19
	c-3.72,0.87-8.16,2.96-12.23,1.82c-7.56-2.13-3.47-3.49-8.15-7.14c-3.08-2.4-1.85-4.56-7.14-7.13c-3.13-1.52-7.91,0.13-11.21-1.02
	c-6.99-2.44-9.14-5.11-14.59-11.03c5.83,2.02,10.83,7.17,17.65,8.99c3.44,0.92,9.17-1.63,12.28-0.05c3.12,1.59,3.35,6.82,5.25,7.98
	c12,7.33,25.58-0.12,38.76-7.63c17.09-9.74,28.61-17.79,48.44-10.24c18.59,7.07,24.69,11.59,45.09,4.57
	c16.72-5.76,29.84-14.21,47.91-12.18c17.83,2.01,29.32,13.08,44.84,21.88c14.07,7.99,27.03,18.53,41.79,24.95
	c16.62,7.24,31.65,11.21,45.86,22.95c14.8,12.24,32.54,22.49,44.62,37.69c4.89,6.15,13.22,18.17,12.45,26.27
	c-1.2,12.67-10.41,10.71-21.4,12.23"/>
<path d="M1400.45,420.09c-2.72-14.53,14.39-9.81,15.34-20.38c0.84-9.39-13.64-14.95-13.08-27.52c1-22.26,34.29-18.44,32.19-39.44
	c-4.09,14.92-23.18,14.97-31.42,27.24c-9.52,14.18-3.22,28.63,8.33,37.71c-8.19,6.06-22.02,13.71-14.42,25.45"/>
<path d="M1510.52,418.05c-23.79,4.37-18.57,27.49-32.87,39.49c-14.42,12.11-33.29,6.27-48.67,2.24
	c-39.44-10.33-42.55,23.21-73.02,32.71c9.74-2.56,16.62-15.56,23.88-22.75c10.26-10.16,16.94-14,31.82-13.99
	c6.09,0.01,36.33,6.39,38.78,0.05c2.16-5.6-9.26-8.02-11.51-12.01c-2.87-5.1-1.79-14.74-1.79-18.76
	c-1.22,13.74,17.35,34.56,30.37,29.45c16.39-6.44,10.1-30.8,25.68-38.48"/>
<path class="st0" d="M1820.43,165.48c-7.96-7.14-23.34-15.92-25.42-28.36l-5.22-1.31l-0.15,7.56l-0.12,67.66
	c-5.29-3.25-14.97-2.26-23.82,3.04c-11.23,6.63-17.1,17.74-13.28,24.72c3.95,6.75,16.2,6.95,27.41,0.26
	c8.55-5.17,14.12-12.88,14.28-19.41c0.1-1.08,0.03-2.12,0.02-3.14l0.13-52.33l-0.08-3.85c0.03-0.89,38.28,15.92,36.38,36.31
	c-1.11,10.74-6.78,18.83-6.78,18.83l2.3-0.1c0,0,0.77-0.69,1.37-1.37c0.45-0.84,4.43-7.64,6.24-17.45
	C1836.08,184.07,1828.7,173.38,1820.43,165.48z"/>
</svg>
