<?xml version="1.0" standalone="no"?>
<!DOCTYPE svg PUBLIC "-//W3C//DTD SVG 20010904//EN"
 "http://www.w3.org/TR/2001/REC-SVG-20010904/DTD/svg10.dtd">
<svg version="1.0" xmlns="http://www.w3.org/2000/svg"
 width="500.000000pt" height="500.000000pt" viewBox="0 0 500.000000 500.000000"
 preserveAspectRatio="xMidYMid meet">
<metadata>
Created by potrace 1.14, written by Peter Selinger 2001-2017
</metadata>
<g transform="translate(0.000000,500.000000) scale(0.100000,-0.100000)"
fill="#000000" stroke="none">
<path d="M3034 4964 c-4 -16 -22 -60 -39 -99 -18 -38 -33 -72 -33 -75 -1 -9
-13 -45 -24 -70 -21 -51 -60 -216 -61 -257 0 -7 -3 -13 -7 -13 -4 0 -6 42 -5
93 0 50 -1 96 -3 101 -3 5 -6 27 -7 48 -2 22 -8 44 -14 49 -6 5 -9 6 -6 3 2
-4 -1 -16 -7 -28 -7 -11 -13 -30 -15 -41 -2 -11 -6 -27 -10 -35 -7 -18 -10
-28 -17 -57 -2 -12 -9 -31 -15 -42 -6 -11 -10 -24 -9 -28 2 -12 -12 -65 -23
-85 -6 -13 -6 -18 3 -18 10 0 10 -2 0 -9 -8 -4 -13 -10 -11 -12 1 -2 -1 -15
-5 -29 -4 -14 -10 -45 -12 -69 -3 -24 -9 -52 -15 -62 -7 -14 -6 -19 3 -19 8 0
9 -3 3 -8 -5 -4 -12 -16 -13 -27 -2 -11 -9 -23 -15 -27 -9 -6 -8 -8 2 -8 10 0
11 -3 2 -13 -6 -8 -8 -16 -5 -19 3 -4 0 -25 -7 -49 -11 -36 -14 -39 -19 -20
-3 12 -5 75 -5 139 0 66 -4 120 -10 124 -6 5 -5 8 3 8 6 0 12 12 12 28 0 15
-4 22 -8 16 -4 -6 -14 -13 -22 -16 -30 -11 -34 -13 -58 -33 -85 -71 -172 -192
-172 -239 0 -9 -4 -16 -8 -16 -18 0 -53 -254 -38 -278 4 -6 3 -12 -2 -12 -8 0
-8 -27 2 -138 4 -39 2 -51 -7 -45 -9 5 -9 4 0 -8 6 -8 14 -41 17 -74 3 -33 7
-71 10 -85 5 -22 9 -50 21 -150 2 -14 4 -25 5 -25 1 0 3 -13 5 -30 1 -16 4
-30 5 -30 2 0 4 -18 6 -40 1 -22 3 -40 4 -40 3 0 19 -87 25 -140 2 -16 7 -43
10 -60 4 -16 7 -38 8 -47 1 -10 4 -18 7 -18 3 0 5 -12 6 -27 0 -16 3 -48 7
-73 l7 -45 -20 36 c-10 20 -20 43 -22 50 -2 8 -6 17 -11 20 -4 3 -9 16 -12 28
-2 13 -8 28 -13 35 -9 11 -36 93 -37 111 0 6 -4 16 -8 23 -5 6 -5 17 -2 22 3
6 1 10 -6 10 -6 0 -9 8 -6 20 3 11 2 20 -2 20 -8 0 -10 14 -13 82 -2 27 -5 48
-8 48 -8 0 -11 40 -13 145 -1 56 -7 95 -14 103 -13 14 -16 7 -16 -40 0 -10 -3
-18 -6 -18 -10 0 -45 -136 -54 -205 -1 -11 -5 -24 -8 -30 -3 -5 -5 -29 -5 -52
1 -24 -2 -43 -5 -43 -7 0 -4 -396 4 -445 3 -16 7 -55 11 -85 3 -30 9 -66 12
-80 3 -14 7 -36 9 -50 2 -14 7 -38 10 -55 4 -16 8 -41 10 -55 2 -14 4 -25 5
-25 3 0 12 -40 13 -57 1 -10 5 -18 10 -18 4 0 5 -4 2 -10 -3 -5 0 -10 7 -10 9
0 9 -3 -2 -10 -8 -5 -10 -10 -4 -10 6 0 11 -6 12 -12 1 -13 9 -48 12 -58 1 -3
2 -8 1 -12 0 -5 3 -8 7 -8 4 0 8 -12 10 -27 l1 -28 -19 25 c-32 40 -34 44 -50
73 -23 46 -66 76 -97 71 -16 -3 -29 -9 -31 -15 -2 -5 -9 -9 -16 -9 -17 0 -36
-38 -37 -75 -2 -37 24 -103 70 -175 19 -30 34 -60 34 -67 0 -7 6 -13 14 -13 7
0 13 -4 13 -10 0 -5 0 -12 1 -15 0 -2 13 -18 30 -36 16 -17 29 -37 29 -44 0
-7 4 -15 8 -17 5 -1 23 -25 42 -53 19 -27 40 -56 47 -63 7 -8 11 -18 8 -23 -4
-5 -1 -9 4 -9 6 0 11 -8 11 -17 0 -11 -8 -5 -25 18 -32 45 -55 74 -80 104 -11
13 -36 42 -54 65 -19 24 -41 48 -48 56 -7 7 -13 15 -13 18 0 6 -3 10 -85 101
-37 42 -51 63 -44 71 6 7 6 15 1 18 -5 3 -7 22 -5 43 7 64 6 147 -1 170 -9 28
11 66 30 59 8 -3 13 -2 10 3 -3 4 19 7 49 6 30 -2 53 1 50 5 -3 4 2 11 11 14
9 4 14 13 10 21 -3 8 -1 15 4 15 4 0 2 13 -6 29 -9 17 -53 55 -107 92 -51 35
-94 65 -97 68 -3 3 -17 12 -32 20 -15 8 -37 22 -47 33 -11 10 -23 18 -26 18
-4 0 -13 6 -20 13 -35 30 -45 37 -45 30 0 -4 -4 -3 -8 3 -8 13 -205 158 -212
157 -3 0 -15 11 -27 26 -13 14 -23 23 -23 18 0 -4 -14 5 -31 20 -17 16 -35 27
-40 25 -5 -1 -9 5 -9 13 0 8 -4 15 -10 15 -9 0 -23 11 -85 65 -12 11 -37 31
-55 45 -17 14 -44 36 -59 50 -78 71 -134 115 -142 112 -5 -1 -8 1 -7 6 2 4
-67 78 -152 164 -156 157 -176 179 -240 259 -19 24 -43 51 -52 61 -10 10 -18
21 -18 24 0 3 -6 11 -12 19 -7 7 -24 27 -38 45 -14 18 -31 38 -38 45 -6 8 -12
17 -12 22 0 4 -11 21 -25 37 -27 31 -44 31 -26 -1 11 -19 32 -71 36 -88 2 -6
11 -31 22 -55 26 -58 36 -83 37 -92 1 -3 4 -10 9 -14 4 -4 7 -16 7 -26 0 -10
4 -18 9 -18 8 0 17 -21 26 -59 2 -8 8 -17 12 -20 5 -3 15 -22 23 -41 7 -19 20
-43 28 -52 8 -10 12 -18 8 -18 -4 0 4 -15 18 -33 15 -19 26 -39 26 -45 0 -7 5
-12 11 -12 5 0 7 -4 4 -10 -3 -5 -1 -10 4 -10 6 0 11 -7 11 -15 0 -8 4 -15 8
-15 5 0 15 -12 23 -27 8 -16 24 -39 37 -53 13 -14 28 -33 33 -43 9 -17 8 -18
-11 -12 -12 4 -36 20 -53 36 -16 16 -35 29 -40 29 -6 0 -8 3 -5 6 3 3 -11 23
-32 44 -21 21 -35 42 -31 46 3 4 0 4 -7 0 -10 -6 -10 -13 3 -33 12 -18 13 -23
4 -18 -8 5 -6 -1 4 -12 9 -11 17 -24 17 -29 0 -10 113 -181 166 -252 17 -23
34 -38 38 -35 3 3 6 2 6 -4 0 -5 15 -26 34 -45 19 -20 32 -39 29 -42 -4 -3 0
-6 7 -6 7 0 23 -11 36 -25 13 -14 21 -25 18 -25 -3 0 1 -6 8 -14 7 -8 16 -12
21 -9 4 2 7 0 7 -6 0 -5 25 -34 55 -64 30 -30 55 -59 55 -66 0 -6 6 -11 14
-11 7 0 16 -9 19 -19 5 -22 -6 -20 -63 13 -40 23 -51 32 -85 64 -14 13 -25 19
-25 15 0 -4 -5 0 -11 10 -5 9 -17 17 -24 17 -8 0 -15 5 -15 10 0 6 -4 10 -9
10 -13 0 -21 -39 -10 -46 6 -3 9 -13 8 -22 -3 -22 15 -69 54 -147 24 -49 91
-139 133 -180 62 -60 114 -106 114 -100 0 3 12 -6 27 -20 15 -14 33 -25 40
-25 7 0 13 -4 13 -10 0 -5 4 -10 9 -10 5 0 38 -18 74 -39 35 -22 87 -50 113
-62 101 -45 162 -71 174 -73 3 -1 11 -5 18 -9 6 -5 17 -5 22 -2 6 3 10 2 10
-3 0 -6 16 -13 35 -16 45 -9 45 -24 0 -22 -19 0 -35 5 -35 10 0 5 -7 3 -15 -4
-9 -7 -15 -8 -15 -2 0 5 -9 8 -20 5 -11 -3 -20 -1 -20 4 0 5 -10 9 -22 10 -34
1 -67 8 -74 16 -4 4 -24 7 -44 7 l-37 0 0 -50 c1 -27 5 -50 11 -50 5 0 6 -3 3
-6 -12 -12 37 -87 87 -133 27 -25 57 -54 68 -63 10 -10 18 -15 18 -11 0 3 8
-1 18 -9 33 -28 262 -153 262 -142 0 3 7 -2 16 -10 8 -9 19 -14 24 -11 5 3 10
2 12 -2 4 -10 110 -59 116 -55 3 2 8 0 11 -5 10 -14 71 -45 71 -36 0 4 4 3 8
-2 4 -6 36 -26 72 -44 36 -19 77 -42 92 -53 14 -10 31 -18 38 -18 6 0 8 -5 5
-10 -3 -5 -13 -10 -20 -10 -8 0 -44 -14 -81 -30 -36 -17 -71 -32 -77 -33 -7
-1 -14 -4 -17 -7 -3 -3 -16 -11 -29 -18 -19 -11 -22 -11 -15 0 4 7 -2 4 -14
-6 -12 -11 -22 -15 -22 -11 0 4 -8 1 -17 -8 -10 -8 -22 -16 -28 -17 -5 -1 -28
-12 -50 -23 -22 -12 -43 -21 -47 -22 -4 0 -16 -7 -26 -15 -10 -8 -40 -26 -68
-40 -27 -13 -51 -27 -54 -30 -5 -5 -33 -21 -75 -44 -42 -23 -140 -89 -146 -98
-3 -5 -10 -10 -15 -10 -12 -1 -88 -51 -92 -60 -2 -5 -8 -8 -13 -8 -6 0 -22
-11 -36 -24 -15 -14 -30 -23 -35 -20 -4 3 -8 -2 -8 -11 0 -9 -5 -13 -10 -10
-6 4 -20 -5 -31 -19 -11 -14 -26 -26 -34 -26 -7 0 -16 -7 -19 -16 -4 -9 -9
-14 -13 -11 -3 4 -14 -3 -24 -15 -11 -11 -19 -17 -19 -13 0 4 -11 -4 -24 -18
-14 -15 -30 -28 -37 -29 -7 -2 -20 -10 -29 -18 -33 -30 -77 -65 -104 -85 -15
-11 -44 -33 -63 -50 -20 -16 -36 -28 -37 -25 -1 3 -13 -6 -27 -20 -26 -25 -18
-50 8 -28 7 6 13 8 13 4 0 -3 16 3 35 14 24 13 35 16 35 7 1 -7 6 -5 14 6 7 9
19 17 25 17 7 0 42 13 78 30 35 16 75 33 89 36 13 3 24 10 24 15 0 5 3 8 8 7
13 -4 112 36 112 46 0 5 3 7 6 4 3 -4 20 0 39 7 39 17 54 8 22 -14 -12 -9 -23
-15 -25 -13 -1 1 -17 -14 -35 -33 -17 -19 -35 -35 -40 -35 -4 0 -20 -12 -36
-26 -16 -14 -32 -25 -35 -25 -10 2 -46 -38 -46 -50 0 -5 -4 -8 -9 -4 -5 3 -25
-10 -45 -29 -20 -18 -36 -32 -36 -29 0 5 -88 -85 -112 -116 -10 -11 -14 -21
-10 -21 4 0 1 -4 -5 -8 -10 -6 -9 -13 3 -31 14 -19 23 -22 58 -18 41 5 62 11
101 27 11 5 41 16 67 27 27 10 48 22 48 26 0 5 4 6 9 2 5 -3 12 -1 16 5 4 6
11 8 16 5 5 -4 9 -2 9 2 0 5 19 17 43 28 23 10 44 21 47 24 3 3 28 17 55 31
28 14 54 31 58 38 5 7 12 10 18 7 5 -4 9 -1 9 6 0 7 3 10 6 7 3 -3 17 5 31 18
14 13 28 22 30 20 3 -2 13 4 24 15 10 10 25 19 31 19 7 -1 2 -10 -11 -20 -13
-11 -19 -20 -15 -20 5 0 1 -5 -9 -11 -9 -6 -15 -14 -12 -20 4 -5 0 -9 -7 -9
-8 0 -21 -12 -30 -27 -9 -16 -25 -37 -35 -48 -36 -39 -80 -100 -98 -134 -20
-39 -8 -55 34 -46 23 6 89 50 103 70 4 5 8 6 8 2 0 -4 11 3 24 17 13 15 29 26
35 26 7 0 9 5 6 10 -3 6 1 13 11 17 17 6 189 174 237 232 15 18 27 29 27 24 0
-4 5 -1 10 7 11 18 109 125 197 216 34 35 60 64 57 64 -3 0 17 22 43 49 49 50
140 150 190 210 15 19 42 48 58 66 17 17 50 54 73 80 24 27 51 50 60 52 12 1
9 -4 -8 -17 -14 -11 -21 -20 -15 -20 5 0 -1 -7 -13 -16 -12 -8 -22 -20 -22
-26 0 -6 -10 -19 -22 -29 -11 -11 -18 -19 -14 -19 4 0 -10 -18 -31 -40 -53
-55 -63 -68 -63 -79 0 -5 -3 -11 -8 -13 -12 -5 -72 -85 -72 -96 0 -14 95 -30
208 -35 23 -1 42 -6 42 -11 0 -4 7 -3 15 4 8 7 15 8 15 4 0 -10 276 -9 345 0
22 3 63 8 90 11 28 2 68 9 89 14 22 5 44 8 48 5 4 -3 8 0 8 6 0 6 6 10 13 9 6
-1 19 1 27 4 21 8 94 27 100 25 3 -1 16 5 30 12 14 8 27 15 30 15 3 1 18 7 33
13 16 7 33 12 38 12 5 0 9 4 9 9 0 10 49 26 65 22 5 -2 7 0 3 4 -4 4 23 28 60
53 37 25 75 55 85 67 10 11 15 13 12 5 -4 -8 4 -1 19 15 14 17 25 34 26 38 0
5 5 5 10 2 6 -3 10 -2 10 4 0 5 11 22 25 37 14 15 35 42 46 61 11 18 25 33 30
33 6 0 8 4 4 9 -3 5 -1 12 5 16 13 8 93 182 99 217 2 10 6 23 21 73 6 22 12
45 13 50 3 20 116 139 124 131 3 -2 13 4 24 15 10 10 26 19 34 19 8 0 15 5 15
12 0 6 3 9 6 5 4 -3 20 1 36 9 17 9 39 17 50 19 26 5 32 11 23 25 -5 8 -11 8
-19 1 -7 -6 -15 -9 -17 -7 -3 3 -17 7 -33 10 -16 3 -32 9 -35 13 -3 5 -13 9
-21 8 -18 0 -90 67 -90 84 0 7 -4 10 -9 6 -6 -3 -14 2 -19 12 -7 11 -23 17
-51 17 -23 1 -41 4 -41 9 0 4 -8 3 -17 -2 -10 -5 -44 -21 -75 -37 -32 -16 -58
-32 -58 -36 0 -4 -6 -8 -14 -8 -7 0 -25 -9 -40 -21 -14 -11 -26 -18 -26 -15 0
3 -19 -4 -42 -14 -24 -10 -54 -21 -68 -24 -14 -3 -38 -9 -55 -12 -16 -4 -36
-11 -42 -17 -9 -6 -13 -6 -13 2 0 7 -4 9 -10 6 -19 -11 -50 -14 -50 -4 0 6 -5
7 -12 2 -18 -11 -70 -12 -92 -1 -13 7 -16 7 -11 -2 5 -9 2 -10 -11 -3 -11 5
-35 10 -54 12 -19 1 -37 6 -38 11 -2 6 -8 8 -13 4 -5 -3 -9 -1 -9 5 0 6 -7 8
-15 5 -8 -4 -15 -1 -15 6 0 7 -7 10 -15 6 -8 -3 -15 -1 -15 5 0 6 -5 9 -12 7
-6 -2 -20 3 -29 11 -34 31 -48 41 -56 41 -11 0 -136 135 -135 146 0 5 -6 16
-13 24 -19 21 -66 110 -58 110 3 0 0 6 -6 13 -6 8 -12 22 -14 33 -2 10 -9 29
-15 42 -7 12 -11 22 -8 22 3 0 0 15 -5 33 -5 17 -12 52 -16 77 -10 57 -10 322
0 375 3 22 9 54 12 70 5 27 11 55 22 93 1 6 5 20 7 30 3 9 5 19 6 22 1 3 3 10
4 15 1 6 10 28 19 50 10 21 19 46 20 55 2 8 7 22 12 30 5 8 10 20 11 25 1 6 6
21 12 35 5 14 10 29 10 34 0 5 7 13 16 18 9 5 16 17 16 27 0 10 8 29 18 42 36
50 40 66 37 155 -1 49 -6 97 -10 107 -4 11 -3 17 5 17 9 0 9 4 2 13 -6 7 -13
30 -16 52 -3 22 -8 54 -12 70 -4 17 -6 38 -6 48 0 9 -3 17 -7 17 -5 0 -7 10
-6 23 1 12 -4 37 -11 55 -7 18 -13 35 -13 37 1 10 -17 103 -21 108 -3 4 -22
84 -24 107 -1 9 -4 20 -7 25 -3 6 -5 21 -3 35 2 14 5 45 8 70 3 25 8 74 11
110 2 36 7 75 9 88 3 12 0 22 -5 22 -6 0 -7 5 -3 11 10 17 11 89 2 89 -5 0 -4
10 3 21 8 17 8 20 -1 14 -9 -6 -10 -3 -2 10 5 11 6 30 2 45 -4 15 -4 33 0 41
5 7 6 18 2 24 -4 5 -8 28 -9 50 -4 92 -17 183 -27 193 -3 2 -8 -9 -12 -24z"/>
<path d="M2163 3720 c-2 -3 -8 -5 -11 -6 -4 0 -26 -4 -49 -8 -24 -4 -45 -8
-48 -7 -2 0 -24 -7 -47 -15 -24 -9 -50 -17 -58 -19 -8 -2 -35 -11 -60 -20 -25
-9 -51 -17 -57 -17 -7 -1 -13 -5 -13 -10 0 -4 -5 -8 -11 -8 -20 0 -129 -52
-129 -62 0 -5 -4 -7 -9 -3 -5 3 -17 -2 -25 -11 -9 -8 -16 -12 -16 -9 0 4 -16
-5 -35 -19 -19 -15 -35 -23 -35 -19 0 4 -4 3 -8 -2 -10 -15 -66 -50 -74 -47
-5 1 -8 -2 -8 -7 0 -4 -17 -20 -37 -33 -44 -30 -111 -87 -165 -141 -36 -37
-49 -67 -28 -67 5 0 20 -11 34 -25 31 -31 47 -31 72 -2 25 27 130 119 153 131
9 5 22 16 29 23 7 7 46 32 85 55 40 24 74 46 75 50 2 5 8 6 13 2 5 -3 9 0 9 5
0 6 9 11 20 11 11 0 20 4 20 8 0 6 40 27 73 37 4 1 10 4 15 5 4 1 10 2 15 1 4
0 7 3 7 8 0 5 10 11 23 14 12 3 48 14 79 26 32 12 68 23 80 25 13 3 24 5 26 7
1 1 7 3 12 4 6 1 11 4 13 5 1 1 13 3 27 5 14 2 36 6 50 10 14 4 36 8 50 9 23
2 25 6 26 54 0 29 -4 52 -8 52 -5 0 -7 4 -4 8 5 9 -62 11 -71 2z"/>
<path d="M3287 3544 c-7 -13 -2 -128 7 -142 4 -7 11 -12 16 -12 14 0 115 -66
155 -101 19 -17 35 -28 35 -25 0 3 27 -21 60 -54 33 -33 66 -60 72 -60 6 0 9
-2 6 -5 -3 -3 13 -25 36 -49 22 -23 52 -57 66 -75 14 -18 33 -42 43 -54 10
-12 28 -37 39 -57 12 -19 24 -37 27 -40 4 -3 15 -22 25 -42 11 -21 24 -38 29
-38 6 0 8 -3 5 -6 -4 -3 8 -33 26 -67 28 -53 72 -159 81 -192 1 -5 5 -17 8
-25 17 -45 37 -122 41 -160 1 -9 5 -20 8 -25 3 -6 5 -22 4 -37 -1 -16 1 -28 5
-28 3 0 6 -6 6 -12 3 -58 14 -161 18 -169 4 -5 13 -5 23 0 9 4 33 7 53 5 29
-3 38 1 42 16 3 10 3 21 0 24 -3 2 -6 24 -8 48 -2 24 -6 63 -10 88 -4 25 -8
54 -10 65 -1 11 -10 52 -20 90 -9 39 -18 77 -20 85 -1 8 -7 28 -14 44 -6 16
-13 36 -15 45 -3 15 -25 70 -46 116 -5 11 -11 27 -12 35 -2 8 -7 18 -13 22 -5
4 -10 11 -10 15 0 4 -14 33 -31 63 -17 30 -32 59 -32 63 -1 4 -8 15 -17 23 -8
9 -15 22 -15 30 0 8 -4 12 -10 9 -5 -3 -10 0 -10 8 0 7 -9 23 -20 35 -12 12
-18 22 -15 22 2 0 -4 10 -14 23 -11 12 -28 32 -38 44 -67 81 -90 107 -138 155
-30 29 -64 62 -77 73 -105 88 -128 106 -128 100 0 -3 -6 0 -14 7 -7 7 -24 20
-36 28 -12 8 -28 20 -35 27 -7 7 -15 10 -17 7 -3 -2 -11 2 -18 11 -7 8 -18 15
-25 15 -8 0 -15 4 -17 9 -1 5 -10 11 -18 13 -8 2 -18 7 -21 12 -4 4 -9 4 -12
0z"/>
<path d="M864 2663 c-16 -37 -29 -70 -30 -73 0 -3 -3 -12 -7 -20 -9 -23 -27
-85 -31 -106 -3 -10 -9 -31 -14 -45 -6 -15 -8 -29 -5 -32 3 -3 1 -12 -3 -19
-5 -7 -9 -21 -10 -30 -1 -10 -2 -19 -4 -20 -1 -2 -3 -21 -5 -43 -1 -22 -4 -40
-5 -40 -10 0 -20 -382 -10 -400 3 -5 6 -26 7 -45 0 -19 4 -47 7 -62 7 -33 15
-70 20 -100 10 -56 50 -192 67 -233 7 -16 13 -34 14 -40 1 -5 11 -29 23 -51
11 -23 18 -44 15 -48 -4 -3 -2 -6 3 -6 5 0 20 -25 34 -55 14 -30 29 -55 33
-55 5 0 5 -4 2 -10 -3 -5 -1 -10 4 -10 6 0 11 -6 11 -14 0 -8 6 -21 13 -28 19
-21 57 -76 57 -84 0 -4 10 -15 22 -25 11 -11 18 -19 15 -19 -4 0 1 -8 11 -19
9 -10 38 -42 64 -72 63 -74 151 -162 175 -176 17 -10 24 -8 41 8 12 10 24 19
26 19 3 0 14 7 24 16 18 15 14 21 -94 129 -61 63 -120 128 -130 144 -10 17
-22 31 -26 31 -4 0 -8 7 -8 15 0 8 -4 15 -9 15 -7 0 -67 89 -99 150 -8 14 -21
39 -30 55 -9 17 -17 37 -18 45 -2 8 -8 16 -13 18 -6 2 -11 10 -11 18 0 8 -4
22 -9 32 -15 27 -46 116 -43 125 1 4 -2 7 -6 7 -4 0 -8 9 -9 21 -1 11 -9 41
-17 67 -8 26 -17 63 -20 82 -3 19 -8 46 -11 60 -18 86 -24 318 -11 420 13 104
16 125 21 150 3 14 7 36 10 50 2 14 11 46 19 72 7 26 11 49 8 52 -3 4 0 6 7 6
7 0 9 9 6 23 -2 12 -7 36 -9 52 -3 17 -7 40 -10 53 -3 13 -6 43 -7 68 -2 24
-6 44 -10 44 -4 0 -20 -30 -35 -67z"/>
<path d="M3808 892 c-3 -7 -74 -52 -135 -85 -17 -9 -38 -17 -46 -17 -9 0 -17
-5 -19 -10 -2 -6 -13 -12 -25 -13 -13 0 -25 -7 -27 -13 -3 -7 -14 -10 -25 -7
-12 3 -21 1 -21 -5 0 -6 -10 -12 -22 -14 -13 -2 -22 -9 -20 -16 1 -8 -1 -11
-6 -8 -5 3 -19 -4 -30 -15 -12 -11 -22 -16 -22 -12 0 4 -5 0 -11 -9 -5 -10
-16 -18 -24 -18 -8 0 -18 -6 -22 -13 -4 -7 -19 -18 -33 -25 -14 -7 -38 -21
-55 -31 -16 -10 -33 -16 -37 -14 -5 2 -8 0 -8 -4 0 -9 -95 -52 -95 -43 0 2
-10 -4 -22 -15 -12 -10 -30 -20 -40 -21 -10 -1 -38 -10 -63 -19 -52 -20 -191
-55 -235 -60 -16 -2 -43 -7 -60 -11 -37 -9 -384 -11 -441 -3 -23 3 -46 9 -52
13 -11 7 -102 -89 -102 -108 0 -6 15 -12 33 -13 35 -1 89 -12 96 -19 2 -2 10
1 18 7 7 7 13 7 13 2 0 -23 392 -21 490 3 14 3 37 7 53 8 15 0 27 5 27 10 0 5
3 7 6 4 3 -4 34 2 70 11 35 10 66 16 69 13 3 -3 5 0 5 6 0 7 3 11 8 10 8 -3
102 28 152 50 88 37 220 105 220 112 0 4 11 11 25 14 14 4 25 11 25 16 0 6 7
10 15 10 8 0 15 5 15 10 0 6 7 10 15 10 8 0 15 5 15 10 0 6 5 10 11 10 6 0 16
6 23 12 7 7 25 22 41 33 15 11 36 28 46 37 9 9 19 15 21 14 2 -1 51 47 109
106 65 66 101 109 93 112 -7 3 -14 2 -16 -2z"/>
</g>
</svg>
